<svg width="163" height="16" viewBox="0 0 163 16" fill="none" xmlns="http://www.w3.org/2000/svg">
<path d="M157.309 15C156.274 15 155.339 14.7663 154.503 14.2991C153.667 13.8184 153.01 13.1509 152.533 12.2964C152.055 11.4286 151.816 10.4272 151.816 9.29238C151.816 8.17089 152.062 7.17623 152.553 6.3084C153.044 5.44058 153.714 4.77302 154.563 4.30573C155.412 3.83844 156.36 3.6048 157.408 3.6048C158.456 3.6048 159.405 3.83844 160.254 4.30573C161.103 4.77302 161.773 5.44058 162.264 6.3084C162.755 7.17623 163 8.17089 163 9.29238C163 10.4139 162.748 11.4085 162.244 12.2764C161.74 13.1442 161.05 13.8184 160.174 14.2991C159.312 14.7663 158.357 15 157.309 15ZM157.309 13.0173C157.892 13.0173 158.436 12.8772 158.941 12.5968C159.458 12.3164 159.876 11.8959 160.194 11.3351C160.513 10.7744 160.672 10.0934 160.672 9.29238C160.672 8.49131 160.519 7.81708 160.214 7.26968C159.909 6.70894 159.504 6.28838 159 6.008C158.496 5.72763 157.952 5.58744 157.368 5.58744C156.785 5.58744 156.241 5.72763 155.737 6.008C155.246 6.28838 154.854 6.70894 154.563 7.26968C154.271 7.81708 154.125 8.49131 154.125 9.29238C154.125 10.4806 154.423 11.4019 155.02 12.0561C155.631 12.6969 156.393 13.0173 157.309 13.0173Z" fill="white"/>
<path d="M145.872 9.31242L150.926 14.8198H147.862L143.802 10.0734V14.8198H141.534V0H143.802V8.61148L147.782 3.78505H150.926L145.872 9.31242Z" fill="white"/>
<path d="M134.143 3.6048C135.005 3.6048 135.775 3.78504 136.451 4.14552C137.141 4.506 137.678 5.04004 138.063 5.74765C138.448 6.45526 138.64 7.30974 138.64 8.31107V14.8198H136.391V8.65153C136.391 7.66354 136.146 6.9092 135.655 6.38851C135.164 5.85446 134.494 5.58744 133.645 5.58744C132.796 5.58744 132.12 5.85446 131.615 6.38851C131.125 6.9092 130.879 7.66354 130.879 8.65153V14.8198H128.611V3.78504H130.879V5.04672C131.251 4.59278 131.722 4.23898 132.292 3.9853C132.876 3.73163 133.493 3.6048 134.143 3.6048Z" fill="white"/>
<path d="M126.378 9.03203C126.378 9.44592 126.352 9.81975 126.299 10.1535H117.921C117.987 11.0347 118.312 11.7423 118.896 12.2764C119.48 12.8104 120.196 13.0774 121.045 13.0774C122.265 13.0774 123.128 12.5634 123.632 11.5354H126.08C125.748 12.5501 125.144 13.3845 124.269 14.0387C123.406 14.6796 122.332 15 121.045 15C119.997 15 119.055 14.7663 118.219 14.2991C117.397 13.8184 116.747 13.1509 116.269 12.2964C115.805 11.4286 115.573 10.4272 115.573 9.29238C115.573 8.15753 115.798 7.16287 116.249 6.3084C116.713 5.44058 117.357 4.77302 118.179 4.30573C119.015 3.83844 119.97 3.6048 121.045 3.6048C122.08 3.6048 123.002 3.83177 123.811 4.2857C124.62 4.73964 125.25 5.3805 125.702 6.20827C126.153 7.02269 126.378 7.96394 126.378 9.03203ZM124.01 8.31107C123.997 7.46995 123.698 6.79572 123.115 6.28838C122.531 5.78103 121.808 5.52736 120.945 5.52736C120.163 5.52736 119.493 5.78103 118.936 6.28838C118.378 6.78237 118.047 7.4566 117.941 8.31107H124.01Z" fill="white"/>
<path d="M108.925 3.6048C109.787 3.6048 110.556 3.78504 111.233 4.14552C111.923 4.506 112.46 5.04004 112.845 5.74765C113.243 6.45526 113.442 7.30974 113.442 8.31107V14.8198H111.193V8.65153C111.193 7.66354 110.948 6.9092 110.457 6.38851C109.966 5.85446 109.296 5.58744 108.447 5.58744C107.598 5.58744 106.921 5.85446 106.417 6.38851C105.926 6.9092 105.681 7.66354 105.681 8.65153V14.8198H103.432V8.65153C103.432 7.66354 103.187 6.9092 102.696 6.38851C102.205 5.85446 101.535 5.58744 100.686 5.58744C99.837 5.58744 99.1604 5.85446 98.6562 6.38851C98.1654 6.9092 97.9199 7.66354 97.9199 8.65153V14.8198H95.6514V3.78504H97.9199V5.04672C98.2914 4.59278 98.7624 4.23898 99.3328 3.9853C99.9033 3.73163 100.514 3.6048 101.164 3.6048C102.039 3.6048 102.822 3.79171 103.512 4.16554C104.202 4.53938 104.732 5.0801 105.104 5.78771C105.435 5.12015 105.953 4.59278 106.656 4.2056C107.359 3.80506 108.115 3.6048 108.925 3.6048Z" fill="white"/>
<path d="M89.0013 15C88.139 15 87.3629 14.8465 86.673 14.5394C85.9964 14.219 85.4591 13.7917 85.0611 13.2577C84.6631 12.7103 84.4508 12.1028 84.4243 11.4352H86.7725C86.8123 11.9025 87.0312 12.2964 87.4292 12.6168C87.8405 12.9239 88.3512 13.0774 88.9615 13.0774C89.5983 13.0774 90.0891 12.9573 90.4341 12.7169C90.7923 12.4633 90.9714 12.1428 90.9714 11.7557C90.9714 11.3418 90.7724 11.0347 90.3744 10.8344C89.9896 10.6342 89.3727 10.4139 88.5237 10.1736C87.7012 9.94659 87.0312 9.72629 86.5138 9.51267C85.9964 9.29906 85.5453 8.97195 85.1606 8.53137C84.7891 8.09078 84.6034 7.51 84.6034 6.78904C84.6034 6.20159 84.7759 5.66755 85.1208 5.18691C85.4657 4.69291 85.9566 4.30573 86.5934 4.02536C87.2435 3.74498 87.9864 3.6048 88.8222 3.6048C90.0692 3.6048 91.0709 3.92522 91.8271 4.56608C92.5965 5.19358 93.0078 6.05473 93.0609 7.14952H90.7923C90.7525 6.65553 90.5535 6.26167 90.1953 5.96795C89.8371 5.67422 89.3528 5.52736 88.7426 5.52736C88.1456 5.52736 87.6879 5.64085 87.3695 5.86781C87.0511 6.09478 86.8919 6.39518 86.8919 6.76902C86.8919 7.06274 86.998 7.30974 87.2103 7.51C87.4226 7.71027 87.6813 7.87048 87.9864 7.99064C88.2915 8.09745 88.7426 8.23764 89.3396 8.41121C90.1356 8.62482 90.7856 8.84512 91.2898 9.07209C91.8072 9.28571 92.2516 9.60613 92.6231 10.0334C92.9945 10.4606 93.1869 11.028 93.2002 11.7356C93.2002 12.3631 93.0277 12.9239 92.6828 13.4179C92.3378 13.9119 91.847 14.2991 91.2102 14.5794C90.5866 14.8598 89.8503 15 89.0013 15Z" fill="white"/>
<path d="M70.7783 9.25233C70.7783 8.14418 71.0039 7.16287 71.4549 6.3084C71.9192 5.45393 72.5428 4.79305 73.3255 4.32576C74.1215 3.84512 74.9971 3.6048 75.9523 3.6048C76.8146 3.6048 77.5642 3.77836 78.201 4.12549C78.851 4.45927 79.3684 4.87983 79.7532 5.38717V3.78504H82.0416V14.8198H79.7532V13.1776C79.3684 13.6983 78.8444 14.1322 78.1811 14.4793C77.5177 14.8264 76.7615 15 75.9125 15C74.9706 15 74.1082 14.7597 73.3255 14.279C72.5428 13.785 71.9192 13.1041 71.4549 12.2363C71.0039 11.3551 70.7783 10.3605 70.7783 9.25233ZM79.7532 9.29238C79.7532 8.53137 79.594 7.87048 79.2756 7.30974C78.9704 6.74899 78.5658 6.32175 78.0617 6.02803C77.5575 5.7343 77.0136 5.58744 76.4299 5.58744C75.8461 5.58744 75.3022 5.7343 74.7981 6.02803C74.294 6.3084 73.8827 6.72896 73.5643 7.28971C73.2592 7.83711 73.1066 8.49131 73.1066 9.25233C73.1066 10.0133 73.2592 10.6809 73.5643 11.255C73.8827 11.8291 74.294 12.2697 74.7981 12.5768C75.3155 12.8705 75.8594 13.0173 76.4299 13.0173C77.0136 13.0173 77.5575 12.8705 78.0617 12.5768C78.5658 12.283 78.9704 11.8558 79.2756 11.2951C79.594 10.721 79.7532 10.0534 79.7532 9.29238Z" fill="white"/>
<path d="M69.7342 0.901215L65.1572 9.77305V14.8198H62.8886V9.77305L58.2917 0.901215H60.819L64.0229 7.73032L67.2268 0.901215H69.7342Z" fill="white"/>
<path d="M51.3379 0V14.8198H49.0693V0H51.3379Z" fill="white"/>
<path d="M46.8369 9.03203C46.8369 9.44592 46.8103 9.81975 46.7573 10.1535H38.3794C38.4458 11.0347 38.7708 11.7423 39.3545 12.2764C39.9383 12.8104 40.6546 13.0774 41.5037 13.0774C42.7242 13.0774 43.5866 12.5634 44.0907 11.5354H46.5384C46.2067 12.5501 45.6031 13.3845 44.7275 14.0387C43.8652 14.6796 42.7906 15 41.5037 15C40.4557 15 39.5137 14.7663 38.6779 14.2991C37.8554 13.8184 37.2053 13.1509 36.7277 12.2964C36.2634 11.4286 36.0312 10.4272 36.0312 9.29238C36.0312 8.15753 36.2568 7.16287 36.7078 6.3084C37.1722 5.44058 37.8156 4.77302 38.6381 4.30573C39.4739 3.83844 40.4291 3.6048 41.5037 3.6048C42.5385 3.6048 43.4605 3.83177 44.2698 4.2857C45.079 4.73964 45.7092 5.3805 46.1603 6.20827C46.6113 7.02269 46.8369 7.96394 46.8369 9.03203ZM44.4688 8.31107C44.4555 7.46995 44.157 6.79572 43.5733 6.28838C42.9896 5.78103 42.2665 5.52736 41.4042 5.52736C40.6215 5.52736 39.9515 5.78103 39.3943 6.28838C38.8371 6.78237 38.5055 7.4566 38.3993 8.31107H44.4688Z" fill="white"/>
<path d="M29.5605 12.777L32.6649 3.78503H35.0727L30.8938 14.8197H28.1874L24.0283 3.78503H26.4561L29.5605 12.777Z" fill="white"/>
<path d="M11.0789 9.25233C11.0789 8.14418 11.3044 7.16287 11.7555 6.3084C12.2198 5.45393 12.8433 4.79305 13.626 4.32576C14.422 3.84512 15.2976 3.6048 16.2528 3.6048C17.1151 3.6048 17.8647 3.77836 18.5015 4.12549C19.1516 4.45927 19.669 4.87983 20.0537 5.38717V3.78504H22.3422V14.8198H20.0537V13.1776C19.669 13.6983 19.1449 14.1322 18.4816 14.4793C17.8183 14.8264 17.0621 15 16.213 15C15.2711 15 14.4088 14.7597 13.626 14.279C12.8433 13.785 12.2198 13.1041 11.7555 12.2363C11.3044 11.3551 11.0789 10.3605 11.0789 9.25233ZM20.0537 9.29238C20.0537 8.53137 19.8945 7.87048 19.5761 7.30974C19.271 6.74899 18.8663 6.32175 18.3622 6.02803C17.8581 5.7343 17.3141 5.58744 16.7304 5.58744C16.1467 5.58744 15.6028 5.7343 15.0986 6.02803C14.5945 6.3084 14.1832 6.72896 13.8648 7.28971C13.5597 7.83711 13.4071 8.49131 13.4071 9.25233C13.4071 10.0133 13.5597 10.6809 13.8648 11.255C14.1832 11.8291 14.5945 12.2697 15.0986 12.5768C15.616 12.8705 16.16 13.0173 16.7304 13.0173C17.3141 13.0173 17.8581 12.8705 18.3622 12.5768C18.8663 12.283 19.271 11.8558 19.5761 11.2951C19.8945 10.721 20.0537 10.0534 20.0537 9.29238Z" fill="white"/>
<path d="M9.67133 5.04674C9.67133 5.75435 9.5055 6.42191 9.17383 7.04941C8.84217 7.67692 8.31151 8.19094 7.58184 8.59147C6.85218 8.97865 5.91689 9.17225 4.77597 9.17225H2.26858V14.8198H0V0.901215H4.77597C5.83729 0.901215 6.73278 1.08813 7.46244 1.46196C8.20537 1.82244 8.75594 2.31644 9.11413 2.94394C9.4856 3.57144 9.67133 4.27238 9.67133 5.04674ZM4.77597 7.30976C5.63829 7.30976 6.28172 7.11617 6.70625 6.72899C7.13078 6.32845 7.34305 5.76771 7.34305 5.04674C7.34305 3.52471 6.48735 2.7637 4.77597 2.7637H2.26858V7.30976H4.77597Z" fill="white"/>
</svg>
