<svg width="163" height="16" viewBox="0 0 163 16" fill="none" xmlns="http://www.w3.org/2000/svg">
<rect width="163" height="16" fill="white"/>
<path d="M157.309 15C156.274 15 155.339 14.7664 154.503 14.2991C153.667 13.8184 153.01 13.1509 152.533 12.2964C152.055 11.4286 151.816 10.4272 151.816 9.29239C151.816 8.17089 152.062 7.17623 152.553 6.30841C153.044 5.44059 153.714 4.77303 154.563 4.30574C155.412 3.83845 156.36 3.6048 157.408 3.6048C158.456 3.6048 159.405 3.83845 160.254 4.30574C161.103 4.77303 161.773 5.44059 162.264 6.30841C162.755 7.17623 163 8.17089 163 9.29239C163 10.4139 162.748 11.4085 162.244 12.2764C161.74 13.1442 161.05 13.8184 160.174 14.2991C159.312 14.7664 158.357 15 157.309 15ZM157.309 13.0174C157.892 13.0174 158.436 12.8772 158.941 12.5968C159.458 12.3164 159.876 11.8959 160.194 11.3351C160.513 10.7744 160.672 10.0935 160.672 9.29239C160.672 8.49132 160.519 7.81709 160.214 7.26969C159.909 6.70894 159.504 6.28838 159 6.00801C158.496 5.72764 157.952 5.58745 157.368 5.58745C156.785 5.58745 156.241 5.72764 155.737 6.00801C155.246 6.28838 154.854 6.70894 154.563 7.26969C154.271 7.81709 154.125 8.49132 154.125 9.29239C154.125 10.4806 154.423 11.4019 155.02 12.0561C155.631 12.6969 156.393 13.0174 157.309 13.0174Z" fill="black"/>
<path d="M145.872 9.31242L150.926 14.8198H147.862L143.802 10.0734V14.8198H141.534V0H143.802V8.61148L147.782 3.78505H150.926L145.872 9.31242Z" fill="black"/>
<path d="M134.143 3.6048C135.005 3.6048 135.775 3.78505 136.451 4.14553C137.141 4.50601 137.678 5.04005 138.063 5.74766C138.448 6.45527 138.64 7.30975 138.64 8.31108V14.8198H136.391V8.65153C136.391 7.66355 136.146 6.90921 135.655 6.38852C135.164 5.85447 134.494 5.58745 133.645 5.58745C132.796 5.58745 132.12 5.85447 131.615 6.38852C131.125 6.90921 130.879 7.66355 130.879 8.65153V14.8198H128.611V3.78504H130.879V5.04673C131.251 4.59279 131.722 4.23898 132.292 3.98531C132.876 3.73164 133.493 3.6048 134.143 3.6048Z" fill="black"/>
<path d="M126.378 9.03204C126.378 9.44593 126.352 9.81976 126.299 10.1535H117.921C117.987 11.0347 118.312 11.7423 118.896 12.2764C119.48 12.8104 120.196 13.0774 121.045 13.0774C122.265 13.0774 123.128 12.5634 123.632 11.5354H126.08C125.748 12.5501 125.144 13.3845 124.269 14.0387C123.406 14.6796 122.332 15 121.045 15C119.997 15 119.055 14.7664 118.219 14.2991C117.397 13.8184 116.747 13.1509 116.269 12.2964C115.805 11.4286 115.573 10.4272 115.573 9.29239C115.573 8.15754 115.798 7.16288 116.249 6.30841C116.713 5.44059 117.357 4.77303 118.179 4.30574C119.015 3.83845 119.97 3.6048 121.045 3.6048C122.08 3.6048 123.002 3.83177 123.811 4.28571C124.62 4.73965 125.25 5.38051 125.702 6.20828C126.153 7.0227 126.378 7.96395 126.378 9.03204ZM124.01 8.31108C123.997 7.46996 123.698 6.79573 123.115 6.28838C122.531 5.78104 121.808 5.52737 120.945 5.52737C120.163 5.52737 119.493 5.78104 118.936 6.28838C118.378 6.78237 118.047 7.45661 117.941 8.31108H124.01Z" fill="black"/>
<path d="M108.925 3.6048C109.787 3.6048 110.556 3.78505 111.233 4.14553C111.923 4.50601 112.46 5.04005 112.845 5.74766C113.243 6.45527 113.442 7.30975 113.442 8.31108V14.8198H111.193V8.65153C111.193 7.66355 110.948 6.90921 110.457 6.38852C109.966 5.85447 109.296 5.58745 108.447 5.58745C107.598 5.58745 106.921 5.85447 106.417 6.38852C105.926 6.90921 105.681 7.66355 105.681 8.65153V14.8198H103.432V8.65153C103.432 7.66355 103.187 6.90921 102.696 6.38852C102.205 5.85447 101.535 5.58745 100.686 5.58745C99.837 5.58745 99.1604 5.85447 98.6562 6.38852C98.1654 6.90921 97.9199 7.66355 97.9199 8.65153V14.8198H95.6514V3.78504H97.9199V5.04673C98.2914 4.59279 98.7624 4.23898 99.3328 3.98531C99.9033 3.73164 100.514 3.6048 101.164 3.6048C102.039 3.6048 102.822 3.79172 103.512 4.16555C104.202 4.53938 104.732 5.08011 105.104 5.78772C105.435 5.12016 105.953 4.59279 106.656 4.20561C107.359 3.80507 108.115 3.6048 108.925 3.6048Z" fill="black"/>
<path d="M89.0013 15C88.139 15 87.3629 14.8465 86.673 14.5394C85.9964 14.219 85.4591 13.7917 85.0611 13.2577C84.6631 12.7103 84.4508 12.1028 84.4243 11.4352H86.7725C86.8123 11.9025 87.0312 12.2964 87.4292 12.6168C87.8405 12.9239 88.3512 13.0774 88.9615 13.0774C89.5983 13.0774 90.0891 12.9573 90.4341 12.717C90.7923 12.4633 90.9714 12.1429 90.9714 11.7557C90.9714 11.3418 90.7724 11.0347 90.3744 10.8344C89.9896 10.6342 89.3727 10.4139 88.5237 10.1736C87.7012 9.9466 87.0312 9.7263 86.5138 9.51268C85.9964 9.29906 85.5453 8.97196 85.1606 8.53137C84.7891 8.09079 84.6034 7.51001 84.6034 6.78905C84.6034 6.2016 84.7759 5.66755 85.1208 5.18691C85.4657 4.69292 85.9566 4.30574 86.5934 4.02536C87.2435 3.74499 87.9864 3.6048 88.8222 3.6048C90.0692 3.6048 91.0709 3.92523 91.8271 4.56609C92.5965 5.19359 93.0078 6.05474 93.0609 7.14953H90.7923C90.7525 6.65554 90.5535 6.26168 90.1953 5.96796C89.8371 5.67423 89.3528 5.52737 88.7426 5.52737C88.1456 5.52737 87.6879 5.64085 87.3695 5.86782C87.0511 6.09479 86.8919 6.39519 86.8919 6.76902C86.8919 7.06275 86.998 7.30974 87.2103 7.51001C87.4226 7.71028 87.6813 7.87049 87.9864 7.99065C88.2915 8.09746 88.7426 8.23765 89.3396 8.41121C90.1356 8.62483 90.7856 8.84513 91.2898 9.0721C91.8072 9.28571 92.2516 9.60614 92.6231 10.0334C92.9945 10.4606 93.1869 11.028 93.2002 11.7356C93.2002 12.3632 93.0277 12.9239 92.6828 13.4179C92.3378 13.9119 91.847 14.2991 91.2102 14.5794C90.5866 14.8598 89.8503 15 89.0013 15Z" fill="black"/>
<path d="M70.7783 9.25233C70.7783 8.14419 71.0039 7.16288 71.4549 6.30841C71.9192 5.45394 72.5428 4.79305 73.3255 4.32576C74.1215 3.84512 74.9971 3.6048 75.9523 3.6048C76.8146 3.6048 77.5642 3.77837 78.201 4.1255C78.851 4.45928 79.3684 4.87984 79.7532 5.38718V3.78504H82.0416V14.8198H79.7532V13.1776C79.3684 13.6983 78.8444 14.1322 78.1811 14.4793C77.5177 14.8264 76.7615 15 75.9125 15C74.9706 15 74.1082 14.7597 73.3255 14.279C72.5428 13.785 71.9192 13.1041 71.4549 12.2363C71.0039 11.3551 70.7783 10.3605 70.7783 9.25233ZM79.7532 9.29239C79.7532 8.53137 79.594 7.87049 79.2756 7.30974C78.9704 6.749 78.5658 6.32176 78.0617 6.02804C77.5575 5.73431 77.0136 5.58745 76.4299 5.58745C75.8461 5.58745 75.3022 5.73431 74.7981 6.02804C74.294 6.30841 73.8827 6.72897 73.5643 7.28972C73.2592 7.83711 73.1066 8.49132 73.1066 9.25233C73.1066 10.0133 73.2592 10.6809 73.5643 11.255C73.8827 11.8291 74.294 12.2697 74.7981 12.5768C75.3155 12.8705 75.8594 13.0174 76.4299 13.0174C77.0136 13.0174 77.5575 12.8705 78.0617 12.5768C78.5658 12.283 78.9704 11.8558 79.2756 11.2951C79.594 10.721 79.7532 10.0534 79.7532 9.29239Z" fill="black"/>
<path d="M69.7342 0.901199L65.1572 9.77303V14.8198H62.8886V9.77303L58.2917 0.901199H60.819L64.0229 7.73031L67.2268 0.901199H69.7342Z" fill="black"/>
<path d="M51.3379 0V14.8198H49.0693V0H51.3379Z" fill="black"/>
<path d="M46.8369 9.03204C46.8369 9.44593 46.8103 9.81976 46.7573 10.1535H38.3794C38.4458 11.0347 38.7708 11.7423 39.3545 12.2764C39.9383 12.8104 40.6546 13.0774 41.5037 13.0774C42.7242 13.0774 43.5866 12.5634 44.0907 11.5354H46.5384C46.2067 12.5501 45.6031 13.3845 44.7275 14.0387C43.8652 14.6796 42.7906 15 41.5037 15C40.4557 15 39.5137 14.7664 38.6779 14.2991C37.8554 13.8184 37.2053 13.1509 36.7277 12.2964C36.2634 11.4286 36.0312 10.4272 36.0312 9.29239C36.0312 8.15754 36.2568 7.16288 36.7078 6.30841C37.1722 5.44059 37.8156 4.77303 38.6381 4.30574C39.4739 3.83845 40.4291 3.6048 41.5037 3.6048C42.5385 3.6048 43.4605 3.83177 44.2698 4.28571C45.079 4.73965 45.7092 5.38051 46.1603 6.20828C46.6113 7.0227 46.8369 7.96395 46.8369 9.03204ZM44.4688 8.31108C44.4555 7.46996 44.157 6.79573 43.5733 6.28838C42.9896 5.78104 42.2665 5.52737 41.4042 5.52737C40.6215 5.52737 39.9515 5.78104 39.3943 6.28838C38.8371 6.78237 38.5055 7.45661 38.3993 8.31108H44.4688Z" fill="black"/>
<path d="M29.5605 12.777L32.6649 3.78505H35.0727L30.8938 14.8198H28.1874L24.0283 3.78505H26.4561L29.5605 12.777Z" fill="black"/>
<path d="M11.0789 9.25233C11.0789 8.14419 11.3044 7.16288 11.7555 6.30841C12.2198 5.45394 12.8433 4.79305 13.626 4.32576C14.422 3.84512 15.2976 3.6048 16.2528 3.6048C17.1151 3.6048 17.8647 3.77837 18.5015 4.1255C19.1516 4.45928 19.669 4.87984 20.0537 5.38718V3.78504H22.3422V14.8198H20.0537V13.1776C19.669 13.6983 19.1449 14.1322 18.4816 14.4793C17.8183 14.8264 17.0621 15 16.213 15C15.2711 15 14.4088 14.7597 13.626 14.279C12.8433 13.785 12.2198 13.1041 11.7555 12.2363C11.3044 11.3551 11.0789 10.3605 11.0789 9.25233ZM20.0537 9.29239C20.0537 8.53137 19.8945 7.87049 19.5761 7.30974C19.271 6.749 18.8663 6.32176 18.3622 6.02804C17.8581 5.73431 17.3141 5.58745 16.7304 5.58745C16.1467 5.58745 15.6028 5.73431 15.0986 6.02804C14.5945 6.30841 14.1832 6.72897 13.8648 7.28972C13.5597 7.83711 13.4071 8.49132 13.4071 9.25233C13.4071 10.0133 13.5597 10.6809 13.8648 11.255C14.1832 11.8291 14.5945 12.2697 15.0986 12.5768C15.616 12.8705 16.16 13.0174 16.7304 13.0174C17.3141 13.0174 17.8581 12.8705 18.3622 12.5768C18.8663 12.283 19.271 11.8558 19.5761 11.2951C19.8945 10.721 20.0537 10.0534 20.0537 9.29239Z" fill="black"/>
<path d="M9.67133 5.04673C9.67133 5.75434 9.5055 6.4219 9.17383 7.0494C8.84217 7.6769 8.31151 8.19092 7.58184 8.59146C6.85218 8.97864 5.91689 9.17223 4.77597 9.17223H2.26858V14.8198H0V0.901199H4.77597C5.83729 0.901199 6.73278 1.08812 7.46244 1.46195C8.20537 1.82243 8.75594 2.31642 9.11413 2.94392C9.4856 3.57143 9.67133 4.27236 9.67133 5.04673ZM4.77597 7.30975C5.63829 7.30975 6.28172 7.11615 6.70625 6.72897C7.13078 6.32844 7.34305 5.76769 7.34305 5.04673C7.34305 3.5247 6.48735 2.76368 4.77597 2.76368H2.26858V7.30975H4.77597Z" fill="black"/>
</svg>
