<svg width="32" height="32" viewBox="0 0 32 32" fill="none" xmlns="http://www.w3.org/2000/svg">
<path fill-rule="evenodd" clip-rule="evenodd" d="M23.75 16C23.75 15.5858 23.4142 15.25 23 15.25H9C8.58579 15.25 8.25 15.5858 8.25 16C8.25 16.4142 8.58579 16.75 9 16.75H23C23.4142 16.75 23.75 16.4142 23.75 16Z" fill="black"/>
<path fill-rule="evenodd" clip-rule="evenodd" d="M23.75 11C23.75 10.5858 23.4142 10.25 23 10.25H9C8.58579 10.25 8.25 10.5858 8.25 11C8.25 11.4142 8.58579 11.75 9 11.75H23C23.4142 11.75 23.75 11.4142 23.75 11Z" fill="black"/>
<path fill-rule="evenodd" clip-rule="evenodd" d="M23.75 21C23.75 20.5858 23.4142 20.25 23 20.25H9C8.58579 20.25 8.25 20.5858 8.25 21C8.25 21.4142 8.58579 21.75 9 21.75H23C23.4142 21.75 23.75 21.4142 23.75 21Z" fill="black"/>
</svg>
